<svg xmlns="http://www.w3.org/2000/svg" viewBox="0 0 282 110" width="282" height="110">
  <g transform="translate(4 5) scale(0.9)">
    <rect x="16" y="12" width="7" height="76" fill="#D92D20"/>
    <polygon points="23,22 88,22 68,44 88,66 23,66" fill="#D92D20"/>
  </g>
  <path d="M131.72 22.13Q131.72 22.49 131.36 22.49L122.9 22.49Q122.75 22.49 122.75 22.64L122.75 32.39Q122.75 32.54 122.9 32.54L128.33 32.54Q128.69 32.54 128.69 32.9L128.69 33.87Q128.69 34.23 128.33 34.23L122.9 34.23Q122.75 34.23 122.75 34.37L122.75 45.64Q122.75 46 122.39 46L121.2 46Q120.84 46 120.84 45.64L120.84 21.16Q120.84 20.8 121.2 20.8L131.36 20.8Q131.72 20.8 131.72 21.16L131.72 22.13Z M147.81 46Q147.45 46 147.45 45.64L147.45 21.16Q147.45 20.8 147.81 20.8L149 20.8Q149.36 20.8 149.36 21.16L149.36 44.16Q149.36 44.31 149.5 44.31L157.92 44.31Q158.28 44.31 158.28 44.67L158.28 45.64Q158.28 46 157.92 46L147.81 46Z M182.91 46Q182.58 46 182.51 45.68L181.54 40.96Q181.54 40.89 181.49 40.85Q181.43 40.82 181.36 40.82L174.3 40.82Q174.23 40.82 174.18 40.85Q174.12 40.89 174.12 40.96L173.15 45.68Q173.12 46 172.76 46L171.57 46Q171.39 46 171.3 45.89Q171.21 45.78 171.24 45.6L176.72 21.12Q176.79 20.8 177.11 20.8L178.55 20.8Q178.91 20.8 178.95 21.12L184.46 45.6L184.46 45.68Q184.46 46 184.13 46L182.91 46ZM174.52 39.09Q174.52 39.23 174.63 39.23L181 39.23Q181.11 39.23 181.11 39.09L177.9 23.86Q177.87 23.75 177.83 23.75Q177.8 23.75 177.76 23.86L174.52 39.09Z M210.84 21.05Q210.95 20.8 211.24 20.8L212.46 20.8Q212.82 20.8 212.82 21.16L212.82 45.64Q212.82 46 212.46 46L211.28 46Q210.92 46 210.92 45.64L210.92 25.23Q210.92 25.12 210.84 25.12Q210.77 25.12 210.74 25.19L206.78 33.98Q206.67 34.26 206.42 34.26Q206.13 34.26 206.02 34.01L202.02 25.26Q201.95 25.19 201.9 25.19Q201.84 25.19 201.84 25.3L201.84 45.64Q201.84 46 201.48 46L200.3 46Q199.94 46 199.94 45.64L199.94 21.16Q199.94 20.8 200.3 20.8L201.52 20.8Q201.81 20.8 201.92 21.05L206.31 30.48Q206.34 30.56 206.42 30.56Q206.49 30.56 206.52 30.48L210.84 21.05Z M241.59 21.05Q241.7 20.8 241.98 20.8L243.21 20.8Q243.57 20.8 243.57 21.16L243.57 45.64Q243.57 46 243.21 46L242.02 46Q241.66 46 241.66 45.64L241.66 25.23Q241.66 25.12 241.59 25.12Q241.52 25.12 241.48 25.19L237.52 33.98Q237.41 34.26 237.16 34.26Q236.87 34.26 236.76 34.01L232.77 25.26Q232.7 25.19 232.64 25.19Q232.59 25.19 232.59 25.3L232.59 45.64Q232.59 46 232.23 46L231.04 46Q230.68 46 230.68 45.64L230.68 21.16Q230.68 20.8 231.04 20.8L232.26 20.8Q232.55 20.8 232.66 21.05L237.05 30.48Q237.09 30.56 237.16 30.56Q237.23 30.56 237.27 30.48L241.59 21.05Z M272.4 22.13Q272.4 22.49 272.04 22.49L263.51 22.49Q263.37 22.49 263.37 22.64L263.37 32.39Q263.37 32.54 263.51 32.54L268.98 32.54Q269.34 32.54 269.34 32.9L269.34 33.87Q269.34 34.23 268.98 34.23L263.51 34.23Q263.37 34.23 263.37 34.37L263.37 44.16Q263.37 44.31 263.51 44.31L272.04 44.31Q272.4 44.31 272.4 44.67L272.4 45.64Q272.4 46 272.04 46L261.82 46Q261.46 46 261.46 45.64L261.46 21.16Q261.46 20.8 261.82 20.8L272.04 20.8Q272.4 20.8 272.4 21.16L272.4 22.13Z" fill="#ECEFF1"/>
  <path d="M129.52 80Q129.12 80 129.02 79.64L126.24 69.7Q126.17 69.56 126.06 69.56L124.84 69.56Q124.66 69.56 124.66 69.74L124.66 79.57Q124.66 79.75 124.53 79.87Q124.41 80 124.23 80L120.02 80Q119.84 80 119.71 79.87Q119.58 79.75 119.58 79.57L119.58 55.23Q119.58 55.05 119.71 54.93Q119.84 54.8 120.02 54.8L127.29 54.8Q129.27 54.8 130.82 55.75Q132.36 56.71 133.21 58.44Q134.06 60.16 134.06 62.4Q134.06 64.52 133.25 66.14Q132.44 67.76 131 68.66Q130.92 68.7 130.89 68.75Q130.85 68.8 130.89 68.88L134.2 79.5L134.24 79.64Q134.24 80 133.84 80L129.52 80ZM124.84 59.16Q124.66 59.16 124.66 59.34L124.66 65.49Q124.66 65.67 124.84 65.67L126.46 65.67Q127.58 65.67 128.28 64.79Q128.98 63.91 128.98 62.43Q128.98 60.92 128.28 60.04Q127.58 59.16 126.46 59.16L124.84 59.16Z M161.5 80.29Q158.19 80.29 156.21 78.34Q154.23 76.4 154.23 73.16L154.23 61.64Q154.23 58.4 156.21 56.46Q158.19 54.51 161.5 54.51Q164.81 54.51 166.81 56.46Q168.81 58.4 168.81 61.64L168.81 73.16Q168.81 76.4 166.81 78.34Q164.81 80.29 161.5 80.29ZM161.5 75.93Q162.51 75.93 163.12 75.23Q163.73 74.53 163.73 73.38L163.73 61.42Q163.73 60.27 163.12 59.57Q162.51 58.87 161.5 58.87Q160.49 58.87 159.9 59.57Q159.3 60.27 159.3 61.42L159.3 73.38Q159.3 74.53 159.9 75.23Q160.49 75.93 161.5 75.93Z M196.71 80.29Q193.47 80.29 191.51 78.25Q189.55 76.22 189.55 72.84L189.55 55.23Q189.55 55.05 189.68 54.93Q189.8 54.8 189.98 54.8L194.19 54.8Q194.37 54.8 194.5 54.93Q194.63 55.05 194.63 55.23L194.63 73.34Q194.63 74.49 195.2 75.21Q195.78 75.93 196.71 75.93Q197.65 75.93 198.21 75.21Q198.77 74.49 198.77 73.34L198.77 55.23Q198.77 55.05 198.89 54.93Q199.02 54.8 199.2 54.8L203.41 54.8Q203.59 54.8 203.72 54.93Q203.84 55.05 203.84 55.23L203.84 72.84Q203.84 76.22 201.88 78.25Q199.92 80.29 196.71 80.29Z M231.75 80.29Q228.51 80.29 226.55 78.43Q224.59 76.58 224.59 73.48L224.59 61.32Q224.59 58.22 226.55 56.37Q228.51 54.51 231.75 54.51Q234.99 54.51 236.97 56.38Q238.95 58.26 238.95 61.35L238.95 62.72Q238.95 62.9 238.83 63.03Q238.7 63.15 238.52 63.15L234.31 63.15Q234.13 63.15 234 63.03Q233.88 62.9 233.88 62.72L233.88 61.28Q233.88 60.2 233.3 59.53Q232.72 58.87 231.75 58.87Q230.82 58.87 230.24 59.53Q229.66 60.2 229.66 61.28L229.66 73.52Q229.66 74.6 230.24 75.27Q230.82 75.93 231.75 75.93Q232.72 75.93 233.3 75.27Q233.88 74.6 233.88 73.52L233.88 70.64Q233.88 70.46 233.7 70.46L232.11 70.46Q231.93 70.46 231.81 70.33Q231.68 70.21 231.68 70.03L231.68 66.82Q231.68 66.64 231.81 66.52Q231.93 66.39 232.11 66.39L238.52 66.39Q238.7 66.39 238.83 66.52Q238.95 66.64 238.95 66.82L238.95 73.48Q238.95 76.58 236.97 78.43Q234.99 80.29 231.75 80.29Z M273.02 58.72Q273.02 58.9 272.89 59.03Q272.76 59.16 272.58 59.16L265.06 59.16Q264.88 59.16 264.88 59.34L264.88 65.02Q264.88 65.2 265.06 65.2L269.38 65.2Q269.56 65.2 269.69 65.33Q269.81 65.46 269.81 65.64L269.81 69.13Q269.81 69.31 269.69 69.43Q269.56 69.56 269.38 69.56L265.06 69.56Q264.88 69.56 264.88 69.74L264.88 75.46Q264.88 75.64 265.06 75.64L272.58 75.64Q272.76 75.64 272.89 75.77Q273.02 75.9 273.02 76.08L273.02 79.57Q273.02 79.75 272.89 79.87Q272.76 80 272.58 80L260.24 80Q260.06 80 259.93 79.87Q259.8 79.75 259.8 79.57L259.8 55.23Q259.8 55.05 259.93 54.93Q260.06 54.8 260.24 54.8L272.58 54.8Q272.76 54.8 272.89 54.93Q273.02 55.05 273.02 55.23L273.02 58.72Z" fill="#D92D20"/>
</svg>